<?xml version="1.0" encoding="UTF-8" standalone="no"?>
<svg
   xmlns:dc="http://purl.org/dc/elements/1.1/"
   xmlns:cc="http://creativecommons.org/ns#"
   xmlns:rdf="http://www.w3.org/1999/02/22-rdf-syntax-ns#"
   xmlns:svg="http://www.w3.org/2000/svg"
   xmlns="http://www.w3.org/2000/svg"
   xmlns:sodipodi="http://sodipodi.sourceforge.net/DTD/sodipodi-0.dtd"
   xmlns:inkscape="http://www.inkscape.org/namespaces/inkscape"
   enable-background="new 0 0 157.728 157.731"
   height="157.731"
   id="Layer_1"
   overflow="visible"
   version="1.1"
   viewBox="0 0 157.728 157.731"
   width="157.728"
   xml:space="preserve"
   sodipodi:docname="discord.svg"
   inkscape:version="0.92.5 (2060ec1f9f, 2020-04-08)"><metadata
     id="metadata875"><rdf:RDF><cc:Work
         rdf:about=""><dc:format>image/svg+xml</dc:format><dc:type
           rdf:resource="http://purl.org/dc/dcmitype/StillImage" /></cc:Work></rdf:RDF></metadata><defs
     id="defs873" /><sodipodi:namedview
     pagecolor="#ffffff"
     bordercolor="#666666"
     borderopacity="1"
     objecttolerance="10"
     gridtolerance="10"
     guidetolerance="10"
     inkscape:pageopacity="0"
     inkscape:pageshadow="2"
     inkscape:window-width="1366"
     inkscape:window-height="704"
     id="namedview871"
     showgrid="false"
     inkscape:zoom="3.3347915"
     inkscape:cx="78.863998"
     inkscape:cy="78.865501"
     inkscape:window-x="0"
     inkscape:window-y="27"
     inkscape:window-maximized="1"
     inkscape:current-layer="icon_2_" /><g
     id="icon_2_"><path
       d="m 113.101,53.34 c 0,0 -9.76,-7.635 -21.284,-8.514 l -1.043,2.076 c 10.425,2.552 15.2,6.207 20.199,10.695 -8.612,-4.394 -17.112,-8.514 -31.927,-8.514 -14.815,0 -23.322,4.12 -31.926,8.514 4.985,-4.488 10.677,-8.545 20.192,-10.695 l -1.036,-2.076 c -12.099,1.145 -21.284,8.514 -21.284,8.514 0,0 -10.902,15.803 -12.771,46.826 10.985,12.672 27.669,12.771 27.669,12.771 l 3.487,-4.649 c -5.923,-2.059 -12.61,-5.741 -18.386,-12.378 6.889,5.209 17.293,10.642 34.055,10.642 16.762,0 27.158,-5.426 34.055,-10.642 -5.783,6.637 -12.47,10.319 -18.386,12.378 l 3.487,4.649 c 0,0 16.677,-0.099 27.669,-12.771 -1.876,-31.023 -12.77,-46.826 -12.77,-46.826 z m -47.89,38.311 c -4.117,0 -7.449,-3.809 -7.449,-8.514 0,-4.701 3.333,-8.513 7.449,-8.513 4.117,0 7.45,3.812 7.45,8.513 0,4.706 -3.333,8.514 -7.45,8.514 z m 27.67,0 c -4.117,0 -7.45,-3.809 -7.45,-8.514 0,-4.701 3.333,-8.513 7.45,-8.513 4.116,0 7.449,3.812 7.449,8.513 0,4.706 -3.34,8.514 -7.449,8.514 z"
       id="path867"
       inkscape:connector-curvature="0"
       style="fill:#ff3e09;fill-opacity:1" /></g></svg>