<svg xmlns="http://www.w3.org/2000/svg" xmlns:svg="http://www.w3.org/2000/svg" id="Layer_1" width="157.728" height="157.731" enable-background="new 0 0 157.728 157.731" overflow="visible" version="1.1" viewBox="0 0 157.728 157.731" xml:space="preserve"><metadata id="metadata875"/><g id="icon_2_"><path id="path867" d="m 113.101,53.34 c 0,0 -9.76,-7.635 -21.284,-8.514 l -1.043,2.076 c 10.425,2.552 15.2,6.207 20.199,10.695 -8.612,-4.394 -17.112,-8.514 -31.927,-8.514 -14.815,0 -23.322,4.12 -31.926,8.514 4.985,-4.488 10.677,-8.545 20.192,-10.695 l -1.036,-2.076 c -12.099,1.145 -21.284,8.514 -21.284,8.514 0,0 -10.902,15.803 -12.771,46.826 10.985,12.672 27.669,12.771 27.669,12.771 l 3.487,-4.649 c -5.923,-2.059 -12.61,-5.741 -18.386,-12.378 6.889,5.209 17.293,10.642 34.055,10.642 16.762,0 27.158,-5.426 34.055,-10.642 -5.783,6.637 -12.47,10.319 -18.386,12.378 l 3.487,4.649 c 0,0 16.677,-0.099 27.669,-12.771 -1.876,-31.023 -12.77,-46.826 -12.77,-46.826 z m -47.89,38.311 c -4.117,0 -7.449,-3.809 -7.449,-8.514 0,-4.701 3.333,-8.513 7.449,-8.513 4.117,0 7.45,3.812 7.45,8.513 0,4.706 -3.333,8.514 -7.45,8.514 z m 27.67,0 c -4.117,0 -7.45,-3.809 -7.45,-8.514 0,-4.701 3.333,-8.513 7.45,-8.513 4.116,0 7.449,3.812 7.449,8.513 0,4.706 -3.34,8.514 -7.449,8.514 z" style="fill:#ff3e09;fill-opacity:1"/></g></svg>